<!-- Generated by IcoMoon.io -->
<svg version="1.1" xmlns="http://www.w3.org/2000/svg" width="32" height="32" viewBox="0 0 32 32">
<title>touch_app</title>
<path d="M15.5 1.333c2.022 0 3.75 0.706 5.183 2.117 1.434 1.411 2.15 3.128 2.15 5.15 0 1.156-0.25 2.244-0.75 3.267-0.514 1.040-1.229 1.91-2.099 2.588l-0.017 0.012h-1.134v-1.667c0.627-0.495 1.129-1.12 1.471-1.836l0.013-0.031c0.326-0.676 0.516-1.47 0.516-2.309 0-0.009-0-0.017-0-0.026v0.001c0-1.467-0.522-2.711-1.566-3.733-1.045-1.023-2.3-1.534-3.767-1.534s-2.722 0.511-3.767 1.534c-1.043 1.022-1.566 2.266-1.566 3.733 0 0.822 0.172 1.6 0.516 2.333 0.355 0.747 0.857 1.372 1.473 1.859l0.011 0.008v2.4c-1.228-0.632-2.224-1.564-2.916-2.701l-0.018-0.032c-0.67-1.086-1.066-2.402-1.066-3.81 0-0.020 0-0.040 0-0.060l-0 0.003c0-2.022 0.716-3.739 2.15-5.15 1.433-1.411 3.16-2.117 5.183-2.117zM14.233 29.333c-0.377 0-0.733-0.072-1.066-0.216-0.337-0.145-0.624-0.342-0.867-0.584l-6.867-6.866 1.867-1.934c0.311-0.31 0.661-0.55 1.050-0.716 0.214-0.095 0.464-0.151 0.727-0.151 0.174 0 0.343 0.024 0.503 0.070l-0.013-0.003 2.6 0.6v-10.866c0-0.934 0.322-1.723 0.966-2.367s1.434-0.967 2.367-0.967 1.722 0.323 2.367 0.967c0.644 0.644 0.966 1.433 0.966 2.367v5.733h0.867c0.111 0 0.211 0.022 0.3 0.067s0.189 0.088 0.3 0.133l4.933 2.4c0.534 0.244 0.928 0.639 1.184 1.183 0.255 0.545 0.327 1.106 0.216 1.684l-1.2 7.266c-0.106 0.647-0.446 1.2-0.928 1.58l-0.005 0.004c-0.462 0.383-1.061 0.616-1.714 0.616-0.007 0-0.013-0-0.020-0h-8.533zM13.967 27.333h9.366l1.434-8.3-6.1-3.033h-1.834v-7.333c0-0.4-0.122-0.723-0.366-0.967-0.245-0.244-0.567-0.367-0.967-0.367s-0.722 0.123-0.967 0.367c-0.244 0.244-0.366 0.567-0.366 0.967v13.3l-5.134-1.1-0.766 0.766 5.7 5.7zM23.333 27.333v0z"></path>
</svg>
